<svg width="122" height="122" viewBox="0 -16 122 122" fill="none" xmlns="http://www.w3.org/2000/svg">
<g clip-path="url(#paint0_diamond_1_406_clip_path)" data-figma-skip-parse="true"><g transform="matrix(-0.049 0.0435 -0.0541333 -0.0609778 61 45)"><rect x="0" y="0" width="1116.64" height="885.974" fill="url(#paint0_diamond_1_406)" opacity="1" shape-rendering="crispEdges"/><rect x="0" y="0" width="1116.64" height="885.974" transform="scale(1 -1)" fill="url(#paint0_diamond_1_406)" opacity="1" shape-rendering="crispEdges"/><rect x="0" y="0" width="1116.64" height="885.974" transform="scale(-1 1)" fill="url(#paint0_diamond_1_406)" opacity="1" shape-rendering="crispEdges"/><rect x="0" y="0" width="1116.64" height="885.974" transform="scale(-1)" fill="url(#paint0_diamond_1_406)" opacity="1" shape-rendering="crispEdges"/></g></g><path d="M17.8007 89.9993L31.4544 89.9986C35.6971 89.9983 37.8185 89.9982 39.7947 89.4854C41.546 89.031 43.2076 88.2827 44.7088 87.2726C46.4026 86.1327 47.8088 84.5443 50.621 81.3676L95.1407 31.0789C95.4923 30.6818 95.668 30.4832 95.8798 30.3407C96.0674 30.2144 96.2752 30.1209 96.4941 30.0641C96.7411 30 97.0063 30 97.5367 30H104.2C108.68 30 110.921 30 112.632 29.1281C114.137 28.3611 115.361 27.1372 116.128 25.6319C117 23.9206 117 21.6804 117 17.2V12.8C117 8.31958 117 6.07937 116.128 4.36808C115.361 2.86278 114.137 1.63893 112.632 0.871948C110.921 0 108.68 0 104.2 0H90.3026C86.0595 0 83.938 0 81.9617 0.512771C80.2101 0.967202 78.5484 1.71545 77.0472 2.72568C75.3532 3.8656 73.947 5.45407 71.1345 8.63101L71.1345 8.63106L26.6142 58.9211C26.2626 59.3182 26.0868 59.5168 25.8751 59.6593C25.6874 59.7856 25.4797 59.8791 25.2608 59.9359C25.0137 60 24.7485 60 24.2182 60H17.8C13.3196 60 11.0794 60 9.36808 60.8719C7.86278 61.6389 6.63893 62.8628 5.87195 64.3681C5 66.0794 5 68.3196 5 72.8V77.1993C5 81.6799 5 83.9203 5.87201 85.6316C6.63904 87.1369 7.86297 88.3608 9.36834 89.1278C11.0797 89.9997 13.32 89.9995 17.8006 89.9993H17.8007Z" data-figma-gradient-fill="{&#34;type&#34;:&#34;GRADIENT_DIAMOND&#34;,&#34;stops&#34;:[{&#34;color&#34;:{&#34;r&#34;:0.87843137979507446,&#34;g&#34;:0.10588235408067703,&#34;b&#34;:0.14117647707462311,&#34;a&#34;:1.0},&#34;position&#34;:0.0},{&#34;color&#34;:{&#34;r&#34;:0.96470588445663452,&#34;g&#34;:0.38039216399192810,&#34;b&#34;:0.31764706969261169,&#34;a&#34;:1.0},&#34;position&#34;:1.0}],&#34;stopsVar&#34;:[{&#34;color&#34;:{&#34;r&#34;:0.87843137979507446,&#34;g&#34;:0.10588235408067703,&#34;b&#34;:0.14117647707462311,&#34;a&#34;:1.0},&#34;position&#34;:0.0},{&#34;color&#34;:{&#34;r&#34;:0.96470588445663452,&#34;g&#34;:0.38039216399192810,&#34;b&#34;:0.31764706969261169,&#34;a&#34;:1.0},&#34;position&#34;:1.0}],&#34;transform&#34;:{&#34;m00&#34;:-97.999992370605469,&#34;m01&#34;:-108.26667022705078,&#34;m02&#34;:164.13333129882812,&#34;m10&#34;:87.000007629394531,&#34;m11&#34;:-121.95554351806641,&#34;m12&#34;:62.477767944335938},&#34;opacity&#34;:1.0,&#34;blendMode&#34;:&#34;NORMAL&#34;,&#34;visible&#34;:true}"/>
<path d="M17.8007 89.9993L31.4544 89.9986C35.6971 89.9983 37.8185 89.9982 39.7947 89.4854C41.546 89.031 43.2076 88.2827 44.7088 87.2726C46.4026 86.1327 47.8088 84.5443 50.621 81.3676L95.1407 31.0789C95.4923 30.6818 95.668 30.4832 95.8798 30.3407C96.0674 30.2144 96.2752 30.1209 96.4941 30.0641C96.7411 30 97.0063 30 97.5367 30H104.2C108.68 30 110.921 30 112.632 29.1281C114.137 28.3611 115.361 27.1372 116.128 25.6319C117 23.9206 117 21.6804 117 17.2V12.8C117 8.31958 117 6.07937 116.128 4.36808C115.361 2.86278 114.137 1.63893 112.632 0.871948C110.921 0 108.68 0 104.2 0H90.3026C86.0595 0 83.938 0 81.9617 0.512771C80.2101 0.967202 78.5484 1.71545 77.0472 2.72568C75.3532 3.8656 73.947 5.45407 71.1345 8.63101L71.1345 8.63106L26.6142 58.9211C26.2626 59.3182 26.0868 59.5168 25.8751 59.6593C25.6874 59.7856 25.4797 59.8791 25.2608 59.9359C25.0137 60 24.7485 60 24.2182 60H17.8C13.3196 60 11.0794 60 9.36808 60.8719C7.86278 61.6389 6.63893 62.8628 5.87195 64.3681C5 66.0794 5 68.3196 5 72.8V77.1993C5 81.6799 5 83.9203 5.87201 85.6316C6.63904 87.1369 7.86297 88.3608 9.36834 89.1278C11.0797 89.9997 13.32 89.9995 17.8006 89.9993H17.8007Z" fill="url(#paint1_radial_1_406)" fill-opacity="0.25" style="mix-blend-mode:plus-lighter"/>
<g clip-path="url(#paint2_diamond_1_406_clip_path)" data-figma-skip-parse="true"><g transform="matrix(-0.0445 0.0445 0.0620133 0.0620133 61 45)"><rect x="0" y="0" width="1157.3" height="830.467" fill="url(#paint2_diamond_1_406)" opacity="0.16" shape-rendering="crispEdges"/><rect x="0" y="0" width="1157.3" height="830.467" transform="scale(1 -1)" fill="url(#paint2_diamond_1_406)" opacity="0.16" shape-rendering="crispEdges"/><rect x="0" y="0" width="1157.3" height="830.467" transform="scale(-1 1)" fill="url(#paint2_diamond_1_406)" opacity="0.16" shape-rendering="crispEdges"/><rect x="0" y="0" width="1157.3" height="830.467" transform="scale(-1)" fill="url(#paint2_diamond_1_406)" opacity="0.16" shape-rendering="crispEdges"/></g></g><path d="M17.8007 89.9993L31.4544 89.9986C35.6971 89.9983 37.8185 89.9982 39.7947 89.4854C41.546 89.031 43.2076 88.2827 44.7088 87.2726C46.4026 86.1327 47.8088 84.5443 50.621 81.3676L95.1407 31.0789C95.4923 30.6818 95.668 30.4832 95.8798 30.3407C96.0674 30.2144 96.2752 30.1209 96.4941 30.0641C96.7411 30 97.0063 30 97.5367 30H104.2C108.68 30 110.921 30 112.632 29.1281C114.137 28.3611 115.361 27.1372 116.128 25.6319C117 23.9206 117 21.6804 117 17.2V12.8C117 8.31958 117 6.07937 116.128 4.36808C115.361 2.86278 114.137 1.63893 112.632 0.871948C110.921 0 108.68 0 104.2 0H90.3026C86.0595 0 83.938 0 81.9617 0.512771C80.2101 0.967202 78.5484 1.71545 77.0472 2.72568C75.3532 3.8656 73.947 5.45407 71.1345 8.63101L71.1345 8.63106L26.6142 58.9211C26.2626 59.3182 26.0868 59.5168 25.8751 59.6593C25.6874 59.7856 25.4797 59.8791 25.2608 59.9359C25.0137 60 24.7485 60 24.2182 60H17.8C13.3196 60 11.0794 60 9.36808 60.8719C7.86278 61.6389 6.63893 62.8628 5.87195 64.3681C5 66.0794 5 68.3196 5 72.8V77.1993C5 81.6799 5 83.9203 5.87201 85.6316C6.63904 87.1369 7.86297 88.3608 9.36834 89.1278C11.0797 89.9997 13.32 89.9995 17.8006 89.9993H17.8007Z" data-figma-gradient-fill="{&#34;type&#34;:&#34;GRADIENT_DIAMOND&#34;,&#34;stops&#34;:[{&#34;color&#34;:{&#34;r&#34;:0.0,&#34;g&#34;:0.0,&#34;b&#34;:0.0,&#34;a&#34;:1.0},&#34;position&#34;:0.0},{&#34;color&#34;:{&#34;r&#34;:0.0,&#34;g&#34;:0.0,&#34;b&#34;:0.0,&#34;a&#34;:0.0},&#34;position&#34;:1.0}],&#34;stopsVar&#34;:[{&#34;color&#34;:{&#34;r&#34;:0.0,&#34;g&#34;:0.0,&#34;b&#34;:0.0,&#34;a&#34;:1.0},&#34;position&#34;:0.0},{&#34;color&#34;:{&#34;r&#34;:0.0,&#34;g&#34;:0.0,&#34;b&#34;:0.0,&#34;a&#34;:0.0},&#34;position&#34;:1.0}],&#34;transform&#34;:{&#34;m00&#34;:-88.999984741210938,&#34;m01&#34;:124.02661895751953,&#34;m02&#34;:43.486667633056641,&#34;m10&#34;:88.999992370605469,&#34;m11&#34;:124.02661895751953,&#34;m12&#34;:-61.513317108154297},&#34;opacity&#34;:0.15999999642372131,&#34;blendMode&#34;:&#34;NORMAL&#34;,&#34;visible&#34;:true}"/>
<path d="M17.8007 89.9993L31.4544 89.9986C35.6971 89.9983 37.8185 89.9982 39.7947 89.4854C41.546 89.031 43.2076 88.2827 44.7088 87.2726C46.4026 86.1327 47.8088 84.5443 50.621 81.3676L95.1407 31.0789C95.4923 30.6818 95.668 30.4832 95.8798 30.3407C96.0674 30.2144 96.2752 30.1209 96.4941 30.0641C96.7411 30 97.0063 30 97.5367 30H104.2C108.68 30 110.921 30 112.632 29.1281C114.137 28.3611 115.361 27.1372 116.128 25.6319C117 23.9206 117 21.6804 117 17.2V12.8C117 8.31958 117 6.07937 116.128 4.36808C115.361 2.86278 114.137 1.63893 112.632 0.871948C110.921 0 108.68 0 104.2 0H90.3026C86.0595 0 83.938 0 81.9617 0.512771C80.2101 0.967202 78.5484 1.71545 77.0472 2.72568C75.3532 3.8656 73.947 5.45407 71.1345 8.63101L71.1345 8.63106L26.6142 58.9211C26.2626 59.3182 26.0868 59.5168 25.8751 59.6593C25.6874 59.7856 25.4797 59.8791 25.2608 59.9359C25.0137 60 24.7485 60 24.2182 60H17.8C13.3196 60 11.0794 60 9.36808 60.8719C7.86278 61.6389 6.63893 62.8628 5.87195 64.3681C5 66.0794 5 68.3196 5 72.8V77.1993C5 81.6799 5 83.9203 5.87201 85.6316C6.63904 87.1369 7.86297 88.3608 9.36834 89.1278C11.0797 89.9997 13.32 89.9995 17.8006 89.9993H17.8007Z" fill="black" fill-opacity="0.2"/>
<path d="M17.8007 0.000686646L31.4544 0.0014267C35.6971 0.00165558 37.8185 0.00177002 39.7947 0.514572C41.546 0.969032 43.2076 1.71727 44.7088 2.72745C46.4026 3.86731 47.8088 5.45567 50.621 8.63239L95.1407 58.9211C95.4923 59.3182 95.668 59.5168 95.8798 59.6593C96.0674 59.7856 96.2752 59.8791 96.4941 59.9359C96.7411 60 97.0063 60 97.5367 60H104.2C108.68 60 110.921 60 112.632 60.8719C114.137 61.6389 115.361 62.8628 116.128 64.3681C117 66.0794 117 68.3196 117 72.8V77.2C117 81.6804 117 83.9206 116.128 85.6319C115.361 87.1372 114.137 88.3611 112.632 89.1281C110.921 90 108.68 90 104.2 90H90.3026C86.0595 90 83.938 90 81.9617 89.4872C80.2101 89.0328 78.5484 88.2845 77.0472 87.2743C75.3532 86.1344 73.947 84.5459 71.1345 81.369L71.1345 81.3689L26.6142 31.0789C26.2626 30.6818 26.0868 30.4832 25.8751 30.3407C25.6874 30.2144 25.4797 30.1209 25.2608 30.0641C25.0137 30 24.7485 30 24.2182 30H17.8C13.3196 30 11.0794 30 9.36808 29.1281C7.86278 28.3611 6.63893 27.1372 5.87195 25.6319C5 23.9206 5 21.6804 5 17.2V12.8007C5 8.32005 5 6.07973 5.87201 4.36839C6.63904 2.86305 7.86297 1.6392 9.36834 0.872238C11.0797 0.000328064 13.32 0.000450134 17.8006 0.000686646H17.8007Z" fill="url(#paint3_radial_1_406)"/>
<path d="M17.8007 0.000686646L31.4544 0.0014267C35.6971 0.00165558 37.8185 0.00177002 39.7947 0.514572C41.546 0.969032 43.2076 1.71727 44.7088 2.72745C46.4026 3.86731 47.8088 5.45567 50.621 8.63239L95.1407 58.9211C95.4923 59.3182 95.668 59.5168 95.8798 59.6593C96.0674 59.7856 96.2752 59.8791 96.4941 59.9359C96.7411 60 97.0063 60 97.5367 60H104.2C108.68 60 110.921 60 112.632 60.8719C114.137 61.6389 115.361 62.8628 116.128 64.3681C117 66.0794 117 68.3196 117 72.8V77.2C117 81.6804 117 83.9206 116.128 85.6319C115.361 87.1372 114.137 88.3611 112.632 89.1281C110.921 90 108.68 90 104.2 90H90.3026C86.0595 90 83.938 90 81.9617 89.4872C80.2101 89.0328 78.5484 88.2845 77.0472 87.2743C75.3532 86.1344 73.947 84.5459 71.1345 81.369L71.1345 81.3689L26.6142 31.0789C26.2626 30.6818 26.0868 30.4832 25.8751 30.3407C25.6874 30.2144 25.4797 30.1209 25.2608 30.0641C25.0137 30 24.7485 30 24.2182 30H17.8C13.3196 30 11.0794 30 9.36808 29.1281C7.86278 28.3611 6.63893 27.1372 5.87195 25.6319C5 23.9206 5 21.6804 5 17.2V12.8007C5 8.32005 5 6.07973 5.87201 4.36839C6.63904 2.86305 7.86297 1.6392 9.36834 0.872238C11.0797 0.000328064 13.32 0.000450134 17.8006 0.000686646H17.8007Z" fill="url(#paint4_radial_1_406)" fill-opacity="0.16" style="mix-blend-mode:plus-darker"/>
<path d="M17.8007 0.000686646L31.4544 0.0014267C35.6971 0.00165558 37.8185 0.00177002 39.7947 0.514572C41.546 0.969032 43.2076 1.71727 44.7088 2.72745C46.4026 3.86731 47.8088 5.45567 50.621 8.63239L95.1407 58.9211C95.4923 59.3182 95.668 59.5168 95.8798 59.6593C96.0674 59.7856 96.2752 59.8791 96.4941 59.9359C96.7411 60 97.0063 60 97.5367 60H104.2C108.68 60 110.921 60 112.632 60.8719C114.137 61.6389 115.361 62.8628 116.128 64.3681C117 66.0794 117 68.3196 117 72.8V77.2C117 81.6804 117 83.9206 116.128 85.6319C115.361 87.1372 114.137 88.3611 112.632 89.1281C110.921 90 108.68 90 104.2 90H90.3026C86.0595 90 83.938 90 81.9617 89.4872C80.2101 89.0328 78.5484 88.2845 77.0472 87.2743C75.3532 86.1344 73.947 84.5459 71.1345 81.369L71.1345 81.3689L26.6142 31.0789C26.2626 30.6818 26.0868 30.4832 25.8751 30.3407C25.6874 30.2144 25.4797 30.1209 25.2608 30.0641C25.0137 30 24.7485 30 24.2182 30H17.8C13.3196 30 11.0794 30 9.36808 29.1281C7.86278 28.3611 6.63893 27.1372 5.87195 25.6319C5 23.9206 5 21.6804 5 17.2V12.8007C5 8.32005 5 6.07973 5.87201 4.36839C6.63904 2.86305 7.86297 1.6392 9.36834 0.872238C11.0797 0.000328064 13.32 0.000450134 17.8006 0.000686646H17.8007Z" fill="url(#paint5_radial_1_406)" fill-opacity="0.16" style="mix-blend-mode:plus-darker"/>
<path d="M110 2.5C114.755 2.5 119.5 7.54703 119.5 15C119.5 22.453 114.755 27.5 110 27.5C105.245 27.5 100.5 22.453 100.5 15C100.5 7.54703 105.245 2.5 110 2.5Z" fill="url(#paint6_linear_1_406)"/>
<path d="M110 2.5C114.755 2.5 119.5 7.54703 119.5 15C119.5 22.453 114.755 27.5 110 27.5C105.245 27.5 100.5 22.453 100.5 15C100.5 7.54703 105.245 2.5 110 2.5Z" fill="url(#paint7_radial_1_406)" fill-opacity="0.2" style="mix-blend-mode:multiply"/>
<path d="M110 2.5C114.755 2.5 119.5 7.54703 119.5 15C119.5 22.453 114.755 27.5 110 27.5C105.245 27.5 100.5 22.453 100.5 15C100.5 7.54703 105.245 2.5 110 2.5Z" fill="url(#paint8_radial_1_406)" fill-opacity="0.2" style="mix-blend-mode:plus-lighter"/>
<path d="M110 2.5C114.755 2.5 119.5 7.54703 119.5 15C119.5 22.453 114.755 27.5 110 27.5C105.245 27.5 100.5 22.453 100.5 15C100.5 7.54703 105.245 2.5 110 2.5Z" stroke="url(#paint9_linear_1_406)" stroke-width="5"/>
<path d="M110 2.5C114.755 2.5 119.5 7.54703 119.5 15C119.5 22.453 114.755 27.5 110 27.5C105.245 27.5 100.5 22.453 100.5 15C100.5 7.54703 105.245 2.5 110 2.5Z" stroke="url(#paint10_linear_1_406)" stroke-opacity="0.2" style="mix-blend-mode:multiply" stroke-width="5"/>
<path d="M110 2.5C114.755 2.5 119.5 7.54703 119.5 15C119.5 22.453 114.755 27.5 110 27.5C105.245 27.5 100.5 22.453 100.5 15C100.5 7.54703 105.245 2.5 110 2.5Z" stroke="url(#paint11_radial_1_406)" stroke-opacity="0.2" style="mix-blend-mode:plus-lighter" stroke-width="5"/>
<path d="M110 62.5C114.755 62.5 119.5 67.547 119.5 75C119.5 82.453 114.755 87.5 110 87.5C105.245 87.5 100.5 82.453 100.5 75C100.5 67.547 105.245 62.5 110 62.5Z" fill="url(#paint12_linear_1_406)"/>
<path d="M110 62.5C114.755 62.5 119.5 67.547 119.5 75C119.5 82.453 114.755 87.5 110 87.5C105.245 87.5 100.5 82.453 100.5 75C100.5 67.547 105.245 62.5 110 62.5Z" fill="url(#paint13_radial_1_406)" fill-opacity="0.2" style="mix-blend-mode:multiply"/>
<path d="M110 62.5C114.755 62.5 119.5 67.547 119.5 75C119.5 82.453 114.755 87.5 110 87.5C105.245 87.5 100.5 82.453 100.5 75C100.5 67.547 105.245 62.5 110 62.5Z" fill="url(#paint14_radial_1_406)" fill-opacity="0.2" style="mix-blend-mode:plus-lighter"/>
<path d="M110 62.5C114.755 62.5 119.5 67.547 119.5 75C119.5 82.453 114.755 87.5 110 87.5C105.245 87.5 100.5 82.453 100.5 75C100.5 67.547 105.245 62.5 110 62.5Z" stroke="url(#paint15_linear_1_406)" stroke-width="5"/>
<path d="M110 62.5C114.755 62.5 119.5 67.547 119.5 75C119.5 82.453 114.755 87.5 110 87.5C105.245 87.5 100.5 82.453 100.5 75C100.5 67.547 105.245 62.5 110 62.5Z" stroke="url(#paint16_linear_1_406)" stroke-opacity="0.2" style="mix-blend-mode:multiply" stroke-width="5"/>
<path d="M110 62.5C114.755 62.5 119.5 67.547 119.5 75C119.5 82.453 114.755 87.5 110 87.5C105.245 87.5 100.5 82.453 100.5 75C100.5 67.547 105.245 62.5 110 62.5Z" stroke="url(#paint17_radial_1_406)" stroke-opacity="0.2" style="mix-blend-mode:plus-lighter" stroke-width="5"/>
<path d="M12 2.5C7.24504 2.5 2.5 7.54703 2.5 15C2.5 22.453 7.24504 27.5 12 27.5C16.755 27.5 21.5 22.453 21.5 15C21.5 7.54703 16.755 2.5 12 2.5Z" fill="url(#paint18_linear_1_406)"/>
<path d="M12 2.5C7.24504 2.5 2.5 7.54703 2.5 15C2.5 22.453 7.24504 27.5 12 27.5C16.755 27.5 21.5 22.453 21.5 15C21.5 7.54703 16.755 2.5 12 2.5Z" fill="url(#paint19_radial_1_406)" fill-opacity="0.2" style="mix-blend-mode:multiply"/>
<path d="M12 2.5C7.24504 2.5 2.5 7.54703 2.5 15C2.5 22.453 7.24504 27.5 12 27.5C16.755 27.5 21.5 22.453 21.5 15C21.5 7.54703 16.755 2.5 12 2.5Z" fill="url(#paint20_radial_1_406)" fill-opacity="0.2" style="mix-blend-mode:plus-lighter"/>
<path d="M12 2.5C7.24504 2.5 2.5 7.54703 2.5 15C2.5 22.453 7.24504 27.5 12 27.5C16.755 27.5 21.5 22.453 21.5 15C21.5 7.54703 16.755 2.5 12 2.5Z" stroke="url(#paint21_linear_1_406)" stroke-width="5"/>
<path d="M12 2.5C7.24504 2.5 2.5 7.54703 2.5 15C2.5 22.453 7.24504 27.5 12 27.5C16.755 27.5 21.5 22.453 21.5 15C21.5 7.54703 16.755 2.5 12 2.5Z" stroke="url(#paint22_linear_1_406)" stroke-opacity="0.2" style="mix-blend-mode:multiply" stroke-width="5"/>
<path d="M12 2.5C7.24504 2.5 2.5 7.54703 2.5 15C2.5 22.453 7.24504 27.5 12 27.5C16.755 27.5 21.5 22.453 21.5 15C21.5 7.54703 16.755 2.5 12 2.5Z" stroke="url(#paint23_radial_1_406)" stroke-opacity="0.2" style="mix-blend-mode:plus-lighter" stroke-width="5"/>
<path d="M12 62.5C7.24504 62.5 2.5 67.547 2.5 75C2.5 82.453 7.24504 87.5 12 87.5C16.755 87.5 21.5 82.453 21.5 75C21.5 67.547 16.755 62.5 12 62.5Z" fill="url(#paint24_linear_1_406)"/>
<path d="M12 62.5C7.24504 62.5 2.5 67.547 2.5 75C2.5 82.453 7.24504 87.5 12 87.5C16.755 87.5 21.5 82.453 21.5 75C21.5 67.547 16.755 62.5 12 62.5Z" fill="url(#paint25_radial_1_406)" fill-opacity="0.2" style="mix-blend-mode:multiply"/>
<path d="M12 62.5C7.24504 62.5 2.5 67.547 2.5 75C2.5 82.453 7.24504 87.5 12 87.5C16.755 87.5 21.5 82.453 21.5 75C21.5 67.547 16.755 62.5 12 62.5Z" fill="url(#paint26_radial_1_406)" fill-opacity="0.2" style="mix-blend-mode:plus-lighter"/>
<path d="M12 62.5C7.24504 62.5 2.5 67.547 2.5 75C2.5 82.453 7.24504 87.5 12 87.5C16.755 87.5 21.5 82.453 21.5 75C21.5 67.547 16.755 62.5 12 62.5Z" stroke="url(#paint27_linear_1_406)" stroke-width="5"/>
<path d="M12 62.5C7.24504 62.5 2.5 67.547 2.5 75C2.5 82.453 7.24504 87.5 12 87.5C16.755 87.5 21.5 82.453 21.5 75C21.5 67.547 16.755 62.5 12 62.5Z" stroke="url(#paint28_linear_1_406)" stroke-opacity="0.2" style="mix-blend-mode:multiply" stroke-width="5"/>
<path d="M12 62.5C7.24504 62.5 2.5 67.547 2.5 75C2.5 82.453 7.24504 87.5 12 87.5C16.755 87.5 21.5 82.453 21.5 75C21.5 67.547 16.755 62.5 12 62.5Z" stroke="url(#paint29_radial_1_406)" stroke-opacity="0.2" style="mix-blend-mode:plus-lighter" stroke-width="5"/>
<defs>
<clipPath id="paint0_diamond_1_406_clip_path"><path d="M17.8007 89.9993L31.4544 89.9986C35.6971 89.9983 37.8185 89.9982 39.7947 89.4854C41.546 89.031 43.2076 88.2827 44.7088 87.2726C46.4026 86.1327 47.8088 84.5443 50.621 81.3676L95.1407 31.0789C95.4923 30.6818 95.668 30.4832 95.8798 30.3407C96.0674 30.2144 96.2752 30.1209 96.4941 30.0641C96.7411 30 97.0063 30 97.5367 30H104.2C108.68 30 110.921 30 112.632 29.1281C114.137 28.3611 115.361 27.1372 116.128 25.6319C117 23.9206 117 21.6804 117 17.2V12.8C117 8.31958 117 6.07937 116.128 4.36808C115.361 2.86278 114.137 1.63893 112.632 0.871948C110.921 0 108.68 0 104.2 0H90.3026C86.0595 0 83.938 0 81.9617 0.512771C80.2101 0.967202 78.5484 1.71545 77.0472 2.72568C75.3532 3.8656 73.947 5.45407 71.1345 8.63101L71.1345 8.63106L26.6142 58.9211C26.2626 59.3182 26.0868 59.5168 25.8751 59.6593C25.6874 59.7856 25.4797 59.8791 25.2608 59.9359C25.0137 60 24.7485 60 24.2182 60H17.8C13.3196 60 11.0794 60 9.36808 60.8719C7.86278 61.6389 6.63893 62.8628 5.87195 64.3681C5 66.0794 5 68.3196 5 72.8V77.1993C5 81.6799 5 83.9203 5.87201 85.6316C6.63904 87.1369 7.86297 88.3608 9.36834 89.1278C11.0797 89.9997 13.32 89.9995 17.8006 89.9993H17.8007Z"/></clipPath><clipPath id="paint2_diamond_1_406_clip_path"><path d="M17.8007 89.9993L31.4544 89.9986C35.6971 89.9983 37.8185 89.9982 39.7947 89.4854C41.546 89.031 43.2076 88.2827 44.7088 87.2726C46.4026 86.1327 47.8088 84.5443 50.621 81.3676L95.1407 31.0789C95.4923 30.6818 95.668 30.4832 95.8798 30.3407C96.0674 30.2144 96.2752 30.1209 96.4941 30.0641C96.7411 30 97.0063 30 97.5367 30H104.2C108.68 30 110.921 30 112.632 29.1281C114.137 28.3611 115.361 27.1372 116.128 25.6319C117 23.9206 117 21.6804 117 17.2V12.8C117 8.31958 117 6.07937 116.128 4.36808C115.361 2.86278 114.137 1.63893 112.632 0.871948C110.921 0 108.68 0 104.2 0H90.3026C86.0595 0 83.938 0 81.9617 0.512771C80.2101 0.967202 78.5484 1.71545 77.0472 2.72568C75.3532 3.8656 73.947 5.45407 71.1345 8.63101L71.1345 8.63106L26.6142 58.9211C26.2626 59.3182 26.0868 59.5168 25.8751 59.6593C25.6874 59.7856 25.4797 59.8791 25.2608 59.9359C25.0137 60 24.7485 60 24.2182 60H17.8C13.3196 60 11.0794 60 9.36808 60.8719C7.86278 61.6389 6.63893 62.8628 5.87195 64.3681C5 66.0794 5 68.3196 5 72.8V77.1993C5 81.6799 5 83.9203 5.87201 85.6316C6.63904 87.1369 7.86297 88.3608 9.36834 89.1278C11.0797 89.9997 13.32 89.9995 17.8006 89.9993H17.8007Z"/></clipPath><linearGradient id="paint0_diamond_1_406" x1="0" y1="0" x2="500" y2="500" gradientUnits="userSpaceOnUse">
<stop stop-color="#E01B24"/>
<stop offset="1" stop-color="#F66151"/>
</linearGradient>
<radialGradient id="paint1_radial_1_406" cx="0" cy="0" r="1" gradientUnits="userSpaceOnUse" gradientTransform="translate(61 45) rotate(135) scale(63.6396 15.6249)">
<stop stop-color="white"/>
<stop offset="1" stop-color="white" stop-opacity="0"/>
</radialGradient>
<linearGradient id="paint2_diamond_1_406" x1="0" y1="0" x2="500" y2="500" gradientUnits="userSpaceOnUse">
<stop/>
<stop offset="1" stop-opacity="0"/>
</linearGradient>
<radialGradient id="paint3_radial_1_406" cx="0" cy="0" r="1" gradientUnits="userSpaceOnUse" gradientTransform="translate(61 45) rotate(135) scale(15.5564 63.6396)">
<stop stop-color="#62A0EA"/>
<stop offset="1" stop-color="#1C71D8"/>
</radialGradient>
<radialGradient id="paint4_radial_1_406" cx="0" cy="0" r="1" gradientUnits="userSpaceOnUse" gradientTransform="translate(110 75.5) rotate(180) scale(44 54.7555)">
<stop/>
<stop offset="1" stop-opacity="0"/>
</radialGradient>
<radialGradient id="paint5_radial_1_406" cx="0" cy="0" r="1" gradientUnits="userSpaceOnUse" gradientTransform="translate(12 15) scale(44.5 55.3778)">
<stop/>
<stop offset="1" stop-opacity="0"/>
</radialGradient>
<linearGradient id="paint6_linear_1_406" x1="98" y1="15" x2="122" y2="15" gradientUnits="userSpaceOnUse">
<stop stop-color="#A51D2D"/>
<stop offset="1" stop-color="#E01B24"/>
</linearGradient>
<radialGradient id="paint7_radial_1_406" cx="0" cy="0" r="1" gradientUnits="userSpaceOnUse" gradientTransform="translate(98 15) rotate(51.3402) scale(19.2094 15.3675)">
<stop/>
<stop offset="1" stop-opacity="0.42"/>
</radialGradient>
<radialGradient id="paint8_radial_1_406" cx="0" cy="0" r="1" gradientUnits="userSpaceOnUse" gradientTransform="translate(98 15) rotate(51.3402) scale(19.2094 15.3675)">
<stop stop-opacity="0"/>
<stop offset="1" stop-color="white"/>
</radialGradient>
<linearGradient id="paint9_linear_1_406" x1="110" y1="0" x2="110" y2="30" gradientUnits="userSpaceOnUse">
<stop stop-color="#A51D2D"/>
<stop offset="1" stop-color="#E01B24"/>
</linearGradient>
<linearGradient id="paint10_linear_1_406" x1="110" y1="0" x2="110" y2="30" gradientUnits="userSpaceOnUse">
<stop stop-opacity="0"/>
<stop offset="1"/>
</linearGradient>
<radialGradient id="paint11_radial_1_406" cx="0" cy="0" r="1" gradientUnits="userSpaceOnUse" gradientTransform="translate(98 15) rotate(51.3402) scale(19.2094 24.0117)">
<stop stop-color="white"/>
<stop offset="1" stop-color="white" stop-opacity="0"/>
</radialGradient>
<linearGradient id="paint12_linear_1_406" x1="98" y1="75" x2="122" y2="75" gradientUnits="userSpaceOnUse">
<stop stop-color="#1A5FB4"/>
<stop offset="1" stop-color="#3584E4"/>
</linearGradient>
<radialGradient id="paint13_radial_1_406" cx="0" cy="0" r="1" gradientUnits="userSpaceOnUse" gradientTransform="translate(98 75) rotate(51.3402) scale(19.2094 15.3675)">
<stop/>
<stop offset="1" stop-opacity="0.42"/>
</radialGradient>
<radialGradient id="paint14_radial_1_406" cx="0" cy="0" r="1" gradientUnits="userSpaceOnUse" gradientTransform="translate(98 75) rotate(51.3402) scale(19.2094 15.3675)">
<stop stop-opacity="0"/>
<stop offset="1" stop-color="white"/>
</radialGradient>
<linearGradient id="paint15_linear_1_406" x1="110" y1="60" x2="110" y2="90" gradientUnits="userSpaceOnUse">
<stop stop-color="#1A5FB4"/>
<stop offset="1" stop-color="#3584E4"/>
</linearGradient>
<linearGradient id="paint16_linear_1_406" x1="110" y1="60" x2="110" y2="90" gradientUnits="userSpaceOnUse">
<stop stop-opacity="0"/>
<stop offset="1"/>
</linearGradient>
<radialGradient id="paint17_radial_1_406" cx="0" cy="0" r="1" gradientUnits="userSpaceOnUse" gradientTransform="translate(98 75) rotate(51.3402) scale(19.2094 24.0117)">
<stop stop-color="white"/>
<stop offset="1" stop-color="white" stop-opacity="0"/>
</radialGradient>
<linearGradient id="paint18_linear_1_406" x1="24" y1="15" x2="-1.81608e-07" y2="15" gradientUnits="userSpaceOnUse">
<stop stop-color="#1A5FB4"/>
<stop offset="1" stop-color="#3584E4"/>
</linearGradient>
<radialGradient id="paint19_radial_1_406" cx="0" cy="0" r="1" gradientUnits="userSpaceOnUse" gradientTransform="translate(24 15) rotate(128.66) scale(19.2094 15.3675)">
<stop/>
<stop offset="1" stop-opacity="0.42"/>
</radialGradient>
<radialGradient id="paint20_radial_1_406" cx="0" cy="0" r="1" gradientUnits="userSpaceOnUse" gradientTransform="translate(24 15) rotate(128.66) scale(19.2094 15.3675)">
<stop stop-opacity="0"/>
<stop offset="1" stop-color="white"/>
</radialGradient>
<linearGradient id="paint21_linear_1_406" x1="12" y1="0" x2="12" y2="30" gradientUnits="userSpaceOnUse">
<stop stop-color="#3584E4"/>
<stop offset="1" stop-color="#1A5FB4"/>
</linearGradient>
<linearGradient id="paint22_linear_1_406" x1="12" y1="0" x2="12" y2="30" gradientUnits="userSpaceOnUse">
<stop/>
<stop offset="1" stop-opacity="0"/>
</linearGradient>
<radialGradient id="paint23_radial_1_406" cx="0" cy="0" r="1" gradientUnits="userSpaceOnUse" gradientTransform="translate(24 15) rotate(128.66) scale(19.2094 24.0117)">
<stop stop-color="white"/>
<stop offset="1" stop-color="white" stop-opacity="0"/>
</radialGradient>
<linearGradient id="paint24_linear_1_406" x1="24" y1="75" x2="-1.81608e-07" y2="75" gradientUnits="userSpaceOnUse">
<stop stop-color="#A51D2D"/>
<stop offset="1" stop-color="#E01B24"/>
</linearGradient>
<radialGradient id="paint25_radial_1_406" cx="0" cy="0" r="1" gradientUnits="userSpaceOnUse" gradientTransform="translate(24 75) rotate(128.66) scale(19.2094 15.3675)">
<stop/>
<stop offset="1" stop-opacity="0.42"/>
</radialGradient>
<radialGradient id="paint26_radial_1_406" cx="0" cy="0" r="1" gradientUnits="userSpaceOnUse" gradientTransform="translate(24 75) rotate(128.66) scale(19.2094 15.3675)">
<stop stop-opacity="0"/>
<stop offset="1" stop-color="white"/>
</radialGradient>
<linearGradient id="paint27_linear_1_406" x1="12" y1="60" x2="12" y2="90" gradientUnits="userSpaceOnUse">
<stop stop-color="#E01B24"/>
<stop offset="1" stop-color="#A51D2D"/>
</linearGradient>
<linearGradient id="paint28_linear_1_406" x1="12" y1="60" x2="12" y2="90" gradientUnits="userSpaceOnUse">
<stop/>
<stop offset="1" stop-opacity="0"/>
</linearGradient>
<radialGradient id="paint29_radial_1_406" cx="0" cy="0" r="1" gradientUnits="userSpaceOnUse" gradientTransform="translate(24 75) rotate(128.66) scale(19.2094 24.0117)">
<stop stop-color="white"/>
<stop offset="1" stop-color="white" stop-opacity="0"/>
</radialGradient>
</defs>
</svg>
