<svg width="128" height="128" viewBox="0 0 128 128" fill="none" xmlns="http://www.w3.org/2000/svg">
<g filter="url(#filter0_ii_8_2)">
<path d="M109 51C115.5 51 121 44.2843 121 36C121 27.7157 115.5 21 109 21H91.2465C85.4321 21 79.8906 23.4672 76 27.7882L35.6687 73.6913C34.2015 75.3207 33.4679 76.1355 32.497 76.5677C31.5261 77 30.4298 77 28.2372 77H19C12.5 77 7 83.7157 7 92C7 100.284 12.5 107 19 107H34.6543C41.2693 107 47.5737 104.193 52 99.2772L91.4898 54.3087C92.957 52.6793 93.6905 51.8645 94.6614 51.4323C95.6323 51 96.7286 51 98.9213 51H109Z" fill="url(#paint0_radial_8_2)"/>
</g>
<path d="M17 79.5C19.1393 79.3087 20 79.5 23 79.5C26 79.5 31.2617 80.643 34 79C36.7383 77.357 38.5 75.5 41 72.5C41 72.5 74.5 33.5 79 28.7882C83.5 24.0764 88.4321 23 94.2465 23C100.061 23 108.5 23.5 108.5 23.5L108 33C108 33 101.5 32 95.5 31.5C89.5 31 83.8906 32.4672 80 36.7882C80 36.7882 48.4286 75 45 79C42.1305 82.3477 40.1418 83.9443 37.8692 85.2554C37.3263 85.5686 37.0548 85.7252 36.4268 85.9818C35.7988 86.2383 35.5341 86.3065 35.0048 86.443C31.3266 87.3913 28.6644 87 24.7849 87H24C21.4718 87 19.0897 88.6255 17 89.7301L12.5 80.5C14.0639 79.9472 14.8256 79.6945 17 79.5Z" fill="url(#paint1_radial_8_2)" fill-opacity="0.125" style="mix-blend-mode:overlay"/>
<g clip-path="url(#paint2_diamond_8_2_clip_path)" data-figma-skip-parse="true"><g transform="matrix(0.0035 0.012 0.0839649 -0.0244898 90 23)"><rect x="0" y="0" width="5638.47" height="1078.44" fill="url(#paint2_diamond_8_2)" opacity="0.25" shape-rendering="crispEdges"/><rect x="0" y="0" width="5638.47" height="1078.44" transform="scale(1 -1)" fill="url(#paint2_diamond_8_2)" opacity="0.25" shape-rendering="crispEdges"/><rect x="0" y="0" width="5638.47" height="1078.44" transform="scale(-1 1)" fill="url(#paint2_diamond_8_2)" opacity="0.25" shape-rendering="crispEdges"/><rect x="0" y="0" width="5638.47" height="1078.44" transform="scale(-1)" fill="url(#paint2_diamond_8_2)" opacity="0.25" shape-rendering="crispEdges"/></g></g><path d="M17 79.5C19.1393 79.3087 20 79.5 23 79.5C26 79.5 31.2617 80.643 34 79C36.7383 77.357 38.5 75.5 41 72.5C41 72.5 74.5 33.5 79 28.7882C83.5 24.0764 88.4321 23 94.2465 23C100.061 23 108.5 23.5 108.5 23.5L108 33C108 33 101.5 32 95.5 31.5C89.5 31 83.8906 32.4672 80 36.7882C80 36.7882 48.4286 75 45 79C42.1305 82.3477 40.1418 83.9443 37.8692 85.2554C37.3263 85.5686 37.0548 85.7252 36.4268 85.9818C35.7988 86.2383 35.5341 86.3065 35.0048 86.443C31.3266 87.3913 28.6644 87 24.7849 87H24C21.4718 87 19.0897 88.6255 17 89.7301L12.5 80.5C14.0639 79.9472 14.8256 79.6945 17 79.5Z" data-figma-gradient-fill="{&#34;type&#34;:&#34;GRADIENT_DIAMOND&#34;,&#34;stops&#34;:[{&#34;color&#34;:{&#34;r&#34;:1.0,&#34;g&#34;:1.0,&#34;b&#34;:1.0,&#34;a&#34;:1.0},&#34;position&#34;:0.0},{&#34;color&#34;:{&#34;r&#34;:1.0,&#34;g&#34;:1.0,&#34;b&#34;:1.0,&#34;a&#34;:0.0},&#34;position&#34;:1.0}],&#34;stopsVar&#34;:[{&#34;color&#34;:{&#34;r&#34;:1.0,&#34;g&#34;:1.0,&#34;b&#34;:1.0,&#34;a&#34;:1.0},&#34;position&#34;:0.0},{&#34;color&#34;:{&#34;r&#34;:1.0,&#34;g&#34;:1.0,&#34;b&#34;:1.0,&#34;a&#34;:0.0},&#34;position&#34;:1.0}],&#34;transform&#34;:{&#34;m00&#34;:6.9999976158142090,&#34;m01&#34;:167.92980957031250,&#34;m02&#34;:2.5351040363311768,&#34;m10&#34;:24.000001907348633,&#34;m11&#34;:-48.979507446289062,&#34;m12&#34;:35.489753723144531},&#34;opacity&#34;:0.250,&#34;blendMode&#34;:&#34;OVERLAY&#34;,&#34;visible&#34;:true}" style="mix-blend-mode:overlay"/>
<g clip-path="url(#paint3_diamond_8_2_clip_path)" data-figma-skip-parse="true"><g transform="matrix(-0.023 0.019 0.00832181 0.0100738 31 76)"><rect x="0" y="0" width="3181.46" height="4695.33" fill="url(#paint3_diamond_8_2)" opacity="0.25" shape-rendering="crispEdges"/><rect x="0" y="0" width="3181.46" height="4695.33" transform="scale(1 -1)" fill="url(#paint3_diamond_8_2)" opacity="0.25" shape-rendering="crispEdges"/><rect x="0" y="0" width="3181.46" height="4695.33" transform="scale(-1 1)" fill="url(#paint3_diamond_8_2)" opacity="0.25" shape-rendering="crispEdges"/><rect x="0" y="0" width="3181.46" height="4695.33" transform="scale(-1)" fill="url(#paint3_diamond_8_2)" opacity="0.25" shape-rendering="crispEdges"/></g></g><path d="M17 79.5C19.1393 79.3087 20 79.5 23 79.5C26 79.5 31.2617 80.643 34 79C36.7383 77.357 38.5 75.5 41 72.5C41 72.5 74.5 33.5 79 28.7882C83.5 24.0764 88.4321 23 94.2465 23C100.061 23 108.5 23.5 108.5 23.5L108 33C108 33 101.5 32 95.5 31.5C89.5 31 83.8906 32.4672 80 36.7882C80 36.7882 48.4286 75 45 79C42.1305 82.3477 40.1418 83.9443 37.8692 85.2554C37.3263 85.5686 37.0548 85.7252 36.4268 85.9818C35.7988 86.2383 35.5341 86.3065 35.0048 86.443C31.3266 87.3913 28.6644 87 24.7849 87H24C21.4718 87 19.0897 88.6255 17 89.7301L12.5 80.5C14.0639 79.9472 14.8256 79.6945 17 79.5Z" data-figma-gradient-fill="{&#34;type&#34;:&#34;GRADIENT_DIAMOND&#34;,&#34;stops&#34;:[{&#34;color&#34;:{&#34;r&#34;:1.0,&#34;g&#34;:1.0,&#34;b&#34;:1.0,&#34;a&#34;:1.0},&#34;position&#34;:0.0},{&#34;color&#34;:{&#34;r&#34;:1.0,&#34;g&#34;:1.0,&#34;b&#34;:1.0,&#34;a&#34;:0.0},&#34;position&#34;:1.0}],&#34;stopsVar&#34;:[{&#34;color&#34;:{&#34;r&#34;:1.0,&#34;g&#34;:1.0,&#34;b&#34;:1.0,&#34;a&#34;:1.0},&#34;position&#34;:0.0},{&#34;color&#34;:{&#34;r&#34;:1.0,&#34;g&#34;:1.0,&#34;b&#34;:1.0,&#34;a&#34;:0.0},&#34;position&#34;:1.0}],&#34;transform&#34;:{&#34;m00&#34;:-46.000003814697266,&#34;m01&#34;:16.643610000610352,&#34;m02&#34;:45.678199768066406,&#34;m10&#34;:37.999996185302734,&#34;m11&#34;:20.147529602050781,&#34;m12&#34;:46.926235198974609},&#34;opacity&#34;:0.250,&#34;blendMode&#34;:&#34;OVERLAY&#34;,&#34;visible&#34;:true}" style="mix-blend-mode:overlay"/>
<mask id="mask0_8_2" style="mask-type:alpha" maskUnits="userSpaceOnUse" x="7" y="21" width="114" height="86">
<path d="M109 51C115.5 51 121 44.2843 121 36C121 27.7157 115.5 21 109 21H91.2465C85.4321 21 79.8906 23.4672 76 27.7882L35.6687 73.6913C34.2015 75.3207 33.4679 76.1355 32.497 76.5677C31.5261 77 30.4298 77 28.2372 77H19C12.5 77 7 83.7157 7 92C7 100.284 12.5 107 19 107H34.6543C41.2693 107 47.5737 104.193 52 99.2772L91.4898 54.3087C92.957 52.6793 93.6905 51.8645 94.6614 51.4323C95.6323 51 96.7286 51 98.9213 51H109Z" fill="black"/>
</mask>
<g mask="url(#mask0_8_2)">
<g filter="url(#filter1_f_8_2)">
<path d="M19 55C12.5 55 7 48.2843 7 40C7 31.7157 12.5 25 19 25H36.7535C42.5679 25 48.1094 27.4672 52 31.7882L92.3313 77.6913C93.7985 79.3207 94.5321 80.1355 95.503 80.5677C96.4739 81 97.5702 81 99.7628 81H109C115.5 81 121 87.7157 121 96C121 104.284 115.5 111 109 111H93.3457C86.7307 111 80.4263 108.193 76 103.277L36.5102 58.3087C35.043 56.6793 34.3095 55.8645 33.3386 55.4323C32.3677 55 31.2714 55 29.0787 55H19Z" fill="url(#paint4_radial_8_2)"/>
</g>
</g>
<g filter="url(#filter2_iii_8_2)">
<path d="M97 36C97 44.2843 102.373 51 109 51C115.627 51 121 44.2843 121 36C121 27.7157 115.627 21 109 21C102.373 21 97 27.7157 97 36Z" fill="url(#paint5_radial_8_2)"/>
<path d="M97 36C97 44.2843 102.373 51 109 51C115.627 51 121 44.2843 121 36C121 27.7157 115.627 21 109 21C102.373 21 97 27.7157 97 36Z" fill="black" fill-opacity="0.25" style="mix-blend-mode:saturation"/>
<path d="M97 36C97 44.2843 102.373 51 109 51C115.627 51 121 44.2843 121 36C121 27.7157 115.627 21 109 21C102.373 21 97 27.7157 97 36Z" fill="url(#paint6_linear_8_2)" fill-opacity="0.5" style="mix-blend-mode:overlay"/>
<path d="M97 36C97 44.2843 102.373 51 109 51C115.627 51 121 44.2843 121 36C121 27.7157 115.627 21 109 21C102.373 21 97 27.7157 97 36Z" fill="url(#paint7_radial_8_2)" fill-opacity="0.5" style="mix-blend-mode:luminosity"/>
<path d="M97 36C97 44.2843 102.373 51 109 51C115.627 51 121 44.2843 121 36C121 27.7157 115.627 21 109 21C102.373 21 97 27.7157 97 36Z" fill="url(#paint8_radial_8_2)" fill-opacity="0.375" style="mix-blend-mode:luminosity"/>
<path d="M116.5 36C116.5 29.2121 112.257 25.5 109 25.5C105.743 25.5 101.5 29.2121 101.5 36C101.5 42.7879 105.743 46.5 109 46.5V51C102.373 51 97 44.2843 97 36C97 27.7157 102.373 21 109 21C115.627 21 121 27.7157 121 36C121 44.2843 115.627 51 109 51V46.5C112.257 46.5 116.5 42.7879 116.5 36Z" fill="#A51D2D"/>
</g>
<g filter="url(#filter3_iii_8_2)">
<path d="M31 92C31 100.284 25.6274 107 19 107C12.3726 107 7 100.284 7 92C7 83.7157 12.3726 77 19 77C25.6274 77 31 83.7157 31 92Z" fill="url(#paint9_radial_8_2)"/>
<path d="M31 92C31 100.284 25.6274 107 19 107C12.3726 107 7 100.284 7 92C7 83.7157 12.3726 77 19 77C25.6274 77 31 83.7157 31 92Z" fill="black" fill-opacity="0.25" style="mix-blend-mode:saturation"/>
<path d="M31 92C31 100.284 25.6274 107 19 107C12.3726 107 7 100.284 7 92C7 83.7157 12.3726 77 19 77C25.6274 77 31 83.7157 31 92Z" fill="url(#paint10_linear_8_2)" fill-opacity="0.5" style="mix-blend-mode:overlay"/>
<path d="M31 92C31 100.284 25.6274 107 19 107C12.3726 107 7 100.284 7 92C7 83.7157 12.3726 77 19 77C25.6274 77 31 83.7157 31 92Z" fill="url(#paint11_radial_8_2)" fill-opacity="0.5" style="mix-blend-mode:luminosity"/>
<path d="M31 92C31 100.284 25.6274 107 19 107C12.3726 107 7 100.284 7 92C7 83.7157 12.3726 77 19 77C25.6274 77 31 83.7157 31 92Z" fill="url(#paint12_radial_8_2)" fill-opacity="0.375" style="mix-blend-mode:luminosity"/>
<path d="M11.5 92C11.5 85.2121 15.743 81.5 19 81.5C22.257 81.5 26.5 85.2121 26.5 92C26.5 98.7879 22.257 102.5 19 102.5V107C25.6274 107 31 100.284 31 92C31 83.7157 25.6274 77 19 77C12.3726 77 7 83.7157 7 92C7 100.284 12.3726 107 19 107V102.5C15.743 102.5 11.5 98.7879 11.5 92Z" fill="#A51D2D"/>
</g>
<g filter="url(#filter4_ii_8_2)">
<path d="M19 51C12.5 51 7 44.2843 7 36C7 27.7157 12.5 21 19 21H36.7535C42.5679 21 48.1094 23.4672 52 27.7882L92.3313 73.6913C93.7985 75.3207 94.5321 76.1355 95.503 76.5677C96.4739 77 97.5702 77 99.7628 77H109C115.5 77 121 83.7157 121 92C121 100.284 115.5 107 109 107H93.3457C86.7307 107 80.4263 104.193 76 99.2772L36.5102 54.3087C35.043 52.6793 34.3095 51.8645 33.3386 51.4323C32.3677 51 31.2714 51 29.0787 51H19Z" fill="url(#paint13_radial_8_2)"/>
</g>
<path d="M111 79.5C108.861 79.3087 108 79.5 105 79.5C102 79.5 96.7383 80.643 94 79C91.2617 77.357 89.5 75.5 87 72.5C87 72.5 53.5 33.5 49 28.7882C44.5 24.0764 39.5679 23 33.7535 23C27.939 23 19.5 23.5 19.5 23.5L20 33C20 33 26.5 32 32.5 31.5C38.5 31 44.1094 32.4672 48 36.7882C48 36.7882 79.5714 75 83 79C85.8695 82.3477 87.8582 83.9443 90.1308 85.2554C90.6737 85.5686 90.9452 85.7252 91.5732 85.9818C92.2012 86.2383 92.4659 86.3065 92.9952 86.443C96.6734 87.3913 99.3356 87 103.215 87H104C106.528 87 108.91 88.6255 111 89.7301L115.5 80.5C113.936 79.9472 113.174 79.6945 111 79.5Z" fill="url(#paint14_radial_8_2)" fill-opacity="0.125" style="mix-blend-mode:overlay"/>
<g clip-path="url(#paint15_diamond_8_2_clip_path)" data-figma-skip-parse="true"><g transform="matrix(-0.0035 0.012 -0.0839649 -0.0244898 38 23)"><rect x="0" y="0" width="5638.47" height="1078.44" fill="url(#paint15_diamond_8_2)" opacity="0.25" shape-rendering="crispEdges"/><rect x="0" y="0" width="5638.47" height="1078.44" transform="scale(1 -1)" fill="url(#paint15_diamond_8_2)" opacity="0.25" shape-rendering="crispEdges"/><rect x="0" y="0" width="5638.47" height="1078.44" transform="scale(-1 1)" fill="url(#paint15_diamond_8_2)" opacity="0.25" shape-rendering="crispEdges"/><rect x="0" y="0" width="5638.47" height="1078.44" transform="scale(-1)" fill="url(#paint15_diamond_8_2)" opacity="0.25" shape-rendering="crispEdges"/></g></g><path d="M111 79.5C108.861 79.3087 108 79.5 105 79.5C102 79.5 96.7383 80.643 94 79C91.2617 77.357 89.5 75.5 87 72.5C87 72.5 53.5 33.5 49 28.7882C44.5 24.0764 39.5679 23 33.7535 23C27.939 23 19.5 23.5 19.5 23.5L20 33C20 33 26.5 32 32.5 31.5C38.5 31 44.1094 32.4672 48 36.7882C48 36.7882 79.5714 75 83 79C85.8695 82.3477 87.8582 83.9443 90.1308 85.2554C90.6737 85.5686 90.9452 85.7252 91.5732 85.9818C92.2012 86.2383 92.4659 86.3065 92.9952 86.443C96.6734 87.3913 99.3356 87 103.215 87H104C106.528 87 108.91 88.6255 111 89.7301L115.5 80.5C113.936 79.9472 113.174 79.6945 111 79.5Z" data-figma-gradient-fill="{&#34;type&#34;:&#34;GRADIENT_DIAMOND&#34;,&#34;stops&#34;:[{&#34;color&#34;:{&#34;r&#34;:1.0,&#34;g&#34;:1.0,&#34;b&#34;:1.0,&#34;a&#34;:1.0},&#34;position&#34;:0.0},{&#34;color&#34;:{&#34;r&#34;:1.0,&#34;g&#34;:1.0,&#34;b&#34;:1.0,&#34;a&#34;:0.0},&#34;position&#34;:1.0}],&#34;stopsVar&#34;:[{&#34;color&#34;:{&#34;r&#34;:1.0,&#34;g&#34;:1.0,&#34;b&#34;:1.0,&#34;a&#34;:1.0},&#34;position&#34;:0.0},{&#34;color&#34;:{&#34;r&#34;:1.0,&#34;g&#34;:1.0,&#34;b&#34;:1.0,&#34;a&#34;:0.0},&#34;position&#34;:1.0}],&#34;transform&#34;:{&#34;m00&#34;:-6.9999976158142090,&#34;m01&#34;:-167.92980957031250,&#34;m02&#34;:125.46489715576172,&#34;m10&#34;:24.000001907348633,&#34;m11&#34;:-48.979507446289062,&#34;m12&#34;:35.489753723144531},&#34;opacity&#34;:0.250,&#34;blendMode&#34;:&#34;OVERLAY&#34;,&#34;visible&#34;:true}" style="mix-blend-mode:overlay"/>
<g clip-path="url(#paint16_diamond_8_2_clip_path)" data-figma-skip-parse="true"><g transform="matrix(0.023 0.019 -0.00832181 0.0100738 97 76)"><rect x="0" y="0" width="3181.46" height="4695.33" fill="url(#paint16_diamond_8_2)" opacity="0.25" shape-rendering="crispEdges"/><rect x="0" y="0" width="3181.46" height="4695.33" transform="scale(1 -1)" fill="url(#paint16_diamond_8_2)" opacity="0.25" shape-rendering="crispEdges"/><rect x="0" y="0" width="3181.46" height="4695.33" transform="scale(-1 1)" fill="url(#paint16_diamond_8_2)" opacity="0.25" shape-rendering="crispEdges"/><rect x="0" y="0" width="3181.46" height="4695.33" transform="scale(-1)" fill="url(#paint16_diamond_8_2)" opacity="0.25" shape-rendering="crispEdges"/></g></g><path d="M111 79.5C108.861 79.3087 108 79.5 105 79.5C102 79.5 96.7383 80.643 94 79C91.2617 77.357 89.5 75.5 87 72.5C87 72.5 53.5 33.5 49 28.7882C44.5 24.0764 39.5679 23 33.7535 23C27.939 23 19.5 23.5 19.5 23.5L20 33C20 33 26.5 32 32.5 31.5C38.5 31 44.1094 32.4672 48 36.7882C48 36.7882 79.5714 75 83 79C85.8695 82.3477 87.8582 83.9443 90.1308 85.2554C90.6737 85.5686 90.9452 85.7252 91.5732 85.9818C92.2012 86.2383 92.4659 86.3065 92.9952 86.443C96.6734 87.3913 99.3356 87 103.215 87H104C106.528 87 108.91 88.6255 111 89.7301L115.5 80.5C113.936 79.9472 113.174 79.6945 111 79.5Z" data-figma-gradient-fill="{&#34;type&#34;:&#34;GRADIENT_DIAMOND&#34;,&#34;stops&#34;:[{&#34;color&#34;:{&#34;r&#34;:1.0,&#34;g&#34;:1.0,&#34;b&#34;:1.0,&#34;a&#34;:1.0},&#34;position&#34;:0.0},{&#34;color&#34;:{&#34;r&#34;:1.0,&#34;g&#34;:1.0,&#34;b&#34;:1.0,&#34;a&#34;:0.0},&#34;position&#34;:1.0}],&#34;stopsVar&#34;:[{&#34;color&#34;:{&#34;r&#34;:1.0,&#34;g&#34;:1.0,&#34;b&#34;:1.0,&#34;a&#34;:1.0},&#34;position&#34;:0.0},{&#34;color&#34;:{&#34;r&#34;:1.0,&#34;g&#34;:1.0,&#34;b&#34;:1.0,&#34;a&#34;:0.0},&#34;position&#34;:1.0}],&#34;transform&#34;:{&#34;m00&#34;:46.000003814697266,&#34;m01&#34;:-16.643610000610352,&#34;m02&#34;:82.321800231933594,&#34;m10&#34;:37.999996185302734,&#34;m11&#34;:20.147529602050781,&#34;m12&#34;:46.926231384277344},&#34;opacity&#34;:0.250,&#34;blendMode&#34;:&#34;OVERLAY&#34;,&#34;visible&#34;:true}" style="mix-blend-mode:overlay"/>
<g filter="url(#filter5_iii_8_2)">
<path d="M97 92C97 100.284 102.373 107 109 107C115.627 107 121 100.284 121 92C121 83.7157 115.627 77 109 77C102.373 77 97 83.7157 97 92Z" fill="url(#paint17_radial_8_2)"/>
<path d="M97 92C97 100.284 102.373 107 109 107C115.627 107 121 100.284 121 92C121 83.7157 115.627 77 109 77C102.373 77 97 83.7157 97 92Z" fill="black" fill-opacity="0.25" style="mix-blend-mode:saturation"/>
<path d="M97 92C97 100.284 102.373 107 109 107C115.627 107 121 100.284 121 92C121 83.7157 115.627 77 109 77C102.373 77 97 83.7157 97 92Z" fill="url(#paint18_linear_8_2)" fill-opacity="0.5" style="mix-blend-mode:overlay"/>
<path d="M97 92C97 100.284 102.373 107 109 107C115.627 107 121 100.284 121 92C121 83.7157 115.627 77 109 77C102.373 77 97 83.7157 97 92Z" fill="url(#paint19_radial_8_2)" fill-opacity="0.5" style="mix-blend-mode:luminosity"/>
<path d="M97 92C97 100.284 102.373 107 109 107C115.627 107 121 100.284 121 92C121 83.7157 115.627 77 109 77C102.373 77 97 83.7157 97 92Z" fill="url(#paint20_radial_8_2)" fill-opacity="0.375" style="mix-blend-mode:luminosity"/>
<path d="M101.5 92C101.5 85.2121 105.743 81.5 109 81.5C112.257 81.5 116.5 85.2121 116.5 92C116.5 98.7879 112.257 102.5 109 102.5V107C115.627 107 121 100.284 121 92C121 83.7157 115.627 77 109 77C102.373 77 97 83.7157 97 92C97 100.284 102.373 107 109 107V102.5C105.743 102.5 101.5 98.7879 101.5 92Z" fill="#1C71D8"/>
</g>
<g filter="url(#filter6_iii_8_2)">
<path d="M31 36C31 44.2843 25.6274 51 19 51C12.3726 51 7 44.2843 7 36C7 27.7157 12.3726 21 19 21C25.6274 21 31 27.7157 31 36Z" fill="url(#paint21_radial_8_2)"/>
<path d="M31 36C31 44.2843 25.6274 51 19 51C12.3726 51 7 44.2843 7 36C7 27.7157 12.3726 21 19 21C25.6274 21 31 27.7157 31 36Z" fill="black" fill-opacity="0.25" style="mix-blend-mode:saturation"/>
<path d="M31 36C31 44.2843 25.6274 51 19 51C12.3726 51 7 44.2843 7 36C7 27.7157 12.3726 21 19 21C25.6274 21 31 27.7157 31 36Z" fill="url(#paint22_linear_8_2)" fill-opacity="0.5" style="mix-blend-mode:overlay"/>
<path d="M31 36C31 44.2843 25.6274 51 19 51C12.3726 51 7 44.2843 7 36C7 27.7157 12.3726 21 19 21C25.6274 21 31 27.7157 31 36Z" fill="url(#paint23_radial_8_2)" fill-opacity="0.5" style="mix-blend-mode:luminosity"/>
<path d="M31 36C31 44.2843 25.6274 51 19 51C12.3726 51 7 44.2843 7 36C7 27.7157 12.3726 21 19 21C25.6274 21 31 27.7157 31 36Z" fill="url(#paint24_radial_8_2)" fill-opacity="0.375" style="mix-blend-mode:luminosity"/>
<path d="M26.5 36C26.5 29.2121 22.257 25.5 19 25.5C15.743 25.5 11.5 29.2121 11.5 36C11.5 42.7879 15.743 46.5 19 46.5V51C12.3726 51 7 44.2843 7 36C7 27.7157 12.3726 21 19 21C25.6274 21 31 27.7157 31 36C31 44.2843 25.6274 51 19 51V46.5C22.257 46.5 26.5 42.7879 26.5 36Z" fill="#1C71D8"/>
</g>
<defs>
<filter id="filter0_ii_8_2" x="3" y="13" width="122" height="102" filterUnits="userSpaceOnUse" color-interpolation-filters="sRGB">
<feFlood flood-opacity="0" result="BackgroundImageFix"/>
<feBlend mode="normal" in="SourceGraphic" in2="BackgroundImageFix" result="shape"/>
<feColorMatrix in="SourceAlpha" type="matrix" values="0 0 0 0 0 0 0 0 0 0 0 0 0 0 0 0 0 0 127 0" result="hardAlpha"/>
<feOffset dx="4" dy="8"/>
<feGaussianBlur stdDeviation="8"/>
<feComposite in2="hardAlpha" operator="arithmetic" k2="-1" k3="1"/>
<feColorMatrix type="matrix" values="0 0 0 0 1 0 0 0 0 1 0 0 0 0 1 0 0 0 0.25 0"/>
<feBlend mode="overlay" in2="shape" result="effect1_innerShadow_8_2"/>
<feColorMatrix in="SourceAlpha" type="matrix" values="0 0 0 0 0 0 0 0 0 0 0 0 0 0 0 0 0 0 127 0" result="hardAlpha"/>
<feOffset dx="-4" dy="-8"/>
<feGaussianBlur stdDeviation="8"/>
<feComposite in2="hardAlpha" operator="arithmetic" k2="-1" k3="1"/>
<feColorMatrix type="matrix" values="0 0 0 0 0 0 0 0 0 0 0 0 0 0 0 0 0 0 0.5 0"/>
<feBlend mode="luminosity" in2="effect1_innerShadow_8_2" result="effect2_innerShadow_8_2"/>
</filter>
<clipPath id="paint2_diamond_8_2_clip_path"><path d="M17 79.5C19.1393 79.3087 20 79.5 23 79.5C26 79.5 31.2617 80.643 34 79C36.7383 77.357 38.5 75.5 41 72.5C41 72.5 74.5 33.5 79 28.7882C83.5 24.0764 88.4321 23 94.2465 23C100.061 23 108.5 23.5 108.5 23.5L108 33C108 33 101.5 32 95.5 31.5C89.5 31 83.8906 32.4672 80 36.7882C80 36.7882 48.4286 75 45 79C42.1305 82.3477 40.1418 83.9443 37.8692 85.2554C37.3263 85.5686 37.0548 85.7252 36.4268 85.9818C35.7988 86.2383 35.5341 86.3065 35.0048 86.443C31.3266 87.3913 28.6644 87 24.7849 87H24C21.4718 87 19.0897 88.6255 17 89.7301L12.5 80.5C14.0639 79.9472 14.8256 79.6945 17 79.5Z"/></clipPath><clipPath id="paint3_diamond_8_2_clip_path"><path d="M17 79.5C19.1393 79.3087 20 79.5 23 79.5C26 79.5 31.2617 80.643 34 79C36.7383 77.357 38.5 75.5 41 72.5C41 72.5 74.5 33.5 79 28.7882C83.5 24.0764 88.4321 23 94.2465 23C100.061 23 108.5 23.5 108.5 23.5L108 33C108 33 101.5 32 95.5 31.5C89.5 31 83.8906 32.4672 80 36.7882C80 36.7882 48.4286 75 45 79C42.1305 82.3477 40.1418 83.9443 37.8692 85.2554C37.3263 85.5686 37.0548 85.7252 36.4268 85.9818C35.7988 86.2383 35.5341 86.3065 35.0048 86.443C31.3266 87.3913 28.6644 87 24.7849 87H24C21.4718 87 19.0897 88.6255 17 89.7301L12.5 80.5C14.0639 79.9472 14.8256 79.6945 17 79.5Z"/></clipPath><filter id="filter1_f_8_2" x="-18" y="0" width="164" height="136" filterUnits="userSpaceOnUse" color-interpolation-filters="sRGB">
<feFlood flood-opacity="0" result="BackgroundImageFix"/>
<feBlend mode="normal" in="SourceGraphic" in2="BackgroundImageFix" result="shape"/>
<feGaussianBlur stdDeviation="12.5" result="effect1_foregroundBlur_8_2"/>
</filter>
<filter id="filter2_iii_8_2" x="96" y="19" width="25" height="34" filterUnits="userSpaceOnUse" color-interpolation-filters="sRGB">
<feFlood flood-opacity="0" result="BackgroundImageFix"/>
<feBlend mode="normal" in="SourceGraphic" in2="BackgroundImageFix" result="shape"/>
<feColorMatrix in="SourceAlpha" type="matrix" values="0 0 0 0 0 0 0 0 0 0 0 0 0 0 0 0 0 0 127 0" result="hardAlpha"/>
<feOffset dy="2"/>
<feGaussianBlur stdDeviation="1"/>
<feComposite in2="hardAlpha" operator="arithmetic" k2="-1" k3="1"/>
<feColorMatrix type="matrix" values="0 0 0 0 1 0 0 0 0 1 0 0 0 0 1 0 0 0 0.2 0"/>
<feBlend mode="overlay" in2="shape" result="effect1_innerShadow_8_2"/>
<feColorMatrix in="SourceAlpha" type="matrix" values="0 0 0 0 0 0 0 0 0 0 0 0 0 0 0 0 0 0 127 0" result="hardAlpha"/>
<feOffset dy="1"/>
<feGaussianBlur stdDeviation="1"/>
<feComposite in2="hardAlpha" operator="arithmetic" k2="-1" k3="1"/>
<feColorMatrix type="matrix" values="0 0 0 0 1 0 0 0 0 1 0 0 0 0 1 0 0 0 0.25 0"/>
<feBlend mode="overlay" in2="effect1_innerShadow_8_2" result="effect2_innerShadow_8_2"/>
<feColorMatrix in="SourceAlpha" type="matrix" values="0 0 0 0 0 0 0 0 0 0 0 0 0 0 0 0 0 0 127 0" result="hardAlpha"/>
<feOffset dx="-1" dy="-2"/>
<feGaussianBlur stdDeviation="2"/>
<feComposite in2="hardAlpha" operator="arithmetic" k2="-1" k3="1"/>
<feColorMatrix type="matrix" values="0 0 0 0 0 0 0 0 0 0 0 0 0 0 0 0 0 0 0.1 0"/>
<feBlend mode="luminosity" in2="effect2_innerShadow_8_2" result="effect3_innerShadow_8_2"/>
</filter>
<filter id="filter3_iii_8_2" x="6" y="75" width="25" height="34" filterUnits="userSpaceOnUse" color-interpolation-filters="sRGB">
<feFlood flood-opacity="0" result="BackgroundImageFix"/>
<feBlend mode="normal" in="SourceGraphic" in2="BackgroundImageFix" result="shape"/>
<feColorMatrix in="SourceAlpha" type="matrix" values="0 0 0 0 0 0 0 0 0 0 0 0 0 0 0 0 0 0 127 0" result="hardAlpha"/>
<feOffset dx="-1" dy="2"/>
<feGaussianBlur stdDeviation="1"/>
<feComposite in2="hardAlpha" operator="arithmetic" k2="-1" k3="1"/>
<feColorMatrix type="matrix" values="0 0 0 0 1 0 0 0 0 1 0 0 0 0 1 0 0 0 0.25 0"/>
<feBlend mode="overlay" in2="shape" result="effect1_innerShadow_8_2"/>
<feColorMatrix in="SourceAlpha" type="matrix" values="0 0 0 0 0 0 0 0 0 0 0 0 0 0 0 0 0 0 127 0" result="hardAlpha"/>
<feOffset dy="1"/>
<feGaussianBlur stdDeviation="1"/>
<feComposite in2="hardAlpha" operator="arithmetic" k2="-1" k3="1"/>
<feColorMatrix type="matrix" values="0 0 0 0 1 0 0 0 0 1 0 0 0 0 1 0 0 0 0.25 0"/>
<feBlend mode="overlay" in2="effect1_innerShadow_8_2" result="effect2_innerShadow_8_2"/>
<feColorMatrix in="SourceAlpha" type="matrix" values="0 0 0 0 0 0 0 0 0 0 0 0 0 0 0 0 0 0 127 0" result="hardAlpha"/>
<feOffset dx="-1" dy="-2"/>
<feGaussianBlur stdDeviation="2"/>
<feComposite in2="hardAlpha" operator="arithmetic" k2="-1" k3="1"/>
<feColorMatrix type="matrix" values="0 0 0 0 0 0 0 0 0 0 0 0 0 0 0 0 0 0 0.15 0"/>
<feBlend mode="luminosity" in2="effect2_innerShadow_8_2" result="effect3_innerShadow_8_2"/>
</filter>
<filter id="filter4_ii_8_2" x="3" y="13" width="119" height="102" filterUnits="userSpaceOnUse" color-interpolation-filters="sRGB">
<feFlood flood-opacity="0" result="BackgroundImageFix"/>
<feBlend mode="normal" in="SourceGraphic" in2="BackgroundImageFix" result="shape"/>
<feColorMatrix in="SourceAlpha" type="matrix" values="0 0 0 0 0 0 0 0 0 0 0 0 0 0 0 0 0 0 127 0" result="hardAlpha"/>
<feOffset dx="1" dy="-8"/>
<feGaussianBlur stdDeviation="8"/>
<feComposite in2="hardAlpha" operator="arithmetic" k2="-1" k3="1"/>
<feColorMatrix type="matrix" values="0 0 0 0 0 0 0 0 0 0 0 0 0 0 0 0 0 0 0.5 0"/>
<feBlend mode="luminosity" in2="shape" result="effect1_innerShadow_8_2"/>
<feColorMatrix in="SourceAlpha" type="matrix" values="0 0 0 0 0 0 0 0 0 0 0 0 0 0 0 0 0 0 127 0" result="hardAlpha"/>
<feOffset dx="-4" dy="8"/>
<feGaussianBlur stdDeviation="8"/>
<feComposite in2="hardAlpha" operator="arithmetic" k2="-1" k3="1"/>
<feColorMatrix type="matrix" values="0 0 0 0 1 0 0 0 0 1 0 0 0 0 1 0 0 0 0.25 0"/>
<feBlend mode="overlay" in2="effect1_innerShadow_8_2" result="effect2_innerShadow_8_2"/>
</filter>
<clipPath id="paint15_diamond_8_2_clip_path"><path d="M111 79.5C108.861 79.3087 108 79.5 105 79.5C102 79.5 96.7383 80.643 94 79C91.2617 77.357 89.5 75.5 87 72.5C87 72.5 53.5 33.5 49 28.7882C44.5 24.0764 39.5679 23 33.7535 23C27.939 23 19.5 23.5 19.5 23.5L20 33C20 33 26.5 32 32.5 31.5C38.5 31 44.1094 32.4672 48 36.7882C48 36.7882 79.5714 75 83 79C85.8695 82.3477 87.8582 83.9443 90.1308 85.2554C90.6737 85.5686 90.9452 85.7252 91.5732 85.9818C92.2012 86.2383 92.4659 86.3065 92.9952 86.443C96.6734 87.3913 99.3356 87 103.215 87H104C106.528 87 108.91 88.6255 111 89.7301L115.5 80.5C113.936 79.9472 113.174 79.6945 111 79.5Z"/></clipPath><clipPath id="paint16_diamond_8_2_clip_path"><path d="M111 79.5C108.861 79.3087 108 79.5 105 79.5C102 79.5 96.7383 80.643 94 79C91.2617 77.357 89.5 75.5 87 72.5C87 72.5 53.5 33.5 49 28.7882C44.5 24.0764 39.5679 23 33.7535 23C27.939 23 19.5 23.5 19.5 23.5L20 33C20 33 26.5 32 32.5 31.5C38.5 31 44.1094 32.4672 48 36.7882C48 36.7882 79.5714 75 83 79C85.8695 82.3477 87.8582 83.9443 90.1308 85.2554C90.6737 85.5686 90.9452 85.7252 91.5732 85.9818C92.2012 86.2383 92.4659 86.3065 92.9952 86.443C96.6734 87.3913 99.3356 87 103.215 87H104C106.528 87 108.91 88.6255 111 89.7301L115.5 80.5C113.936 79.9472 113.174 79.6945 111 79.5Z"/></clipPath><filter id="filter5_iii_8_2" x="96" y="75" width="25" height="34" filterUnits="userSpaceOnUse" color-interpolation-filters="sRGB">
<feFlood flood-opacity="0" result="BackgroundImageFix"/>
<feBlend mode="normal" in="SourceGraphic" in2="BackgroundImageFix" result="shape"/>
<feColorMatrix in="SourceAlpha" type="matrix" values="0 0 0 0 0 0 0 0 0 0 0 0 0 0 0 0 0 0 127 0" result="hardAlpha"/>
<feOffset dy="2"/>
<feGaussianBlur stdDeviation="1"/>
<feComposite in2="hardAlpha" operator="arithmetic" k2="-1" k3="1"/>
<feColorMatrix type="matrix" values="0 0 0 0 1 0 0 0 0 1 0 0 0 0 1 0 0 0 0.2 0"/>
<feBlend mode="overlay" in2="shape" result="effect1_innerShadow_8_2"/>
<feColorMatrix in="SourceAlpha" type="matrix" values="0 0 0 0 0 0 0 0 0 0 0 0 0 0 0 0 0 0 127 0" result="hardAlpha"/>
<feOffset dy="1"/>
<feGaussianBlur stdDeviation="1"/>
<feComposite in2="hardAlpha" operator="arithmetic" k2="-1" k3="1"/>
<feColorMatrix type="matrix" values="0 0 0 0 1 0 0 0 0 1 0 0 0 0 1 0 0 0 0.25 0"/>
<feBlend mode="overlay" in2="effect1_innerShadow_8_2" result="effect2_innerShadow_8_2"/>
<feColorMatrix in="SourceAlpha" type="matrix" values="0 0 0 0 0 0 0 0 0 0 0 0 0 0 0 0 0 0 127 0" result="hardAlpha"/>
<feOffset dx="-1" dy="-2"/>
<feGaussianBlur stdDeviation="2"/>
<feComposite in2="hardAlpha" operator="arithmetic" k2="-1" k3="1"/>
<feColorMatrix type="matrix" values="0 0 0 0 0 0 0 0 0 0 0 0 0 0 0 0 0 0 0.1 0"/>
<feBlend mode="luminosity" in2="effect2_innerShadow_8_2" result="effect3_innerShadow_8_2"/>
</filter>
<filter id="filter6_iii_8_2" x="6" y="19" width="25" height="34" filterUnits="userSpaceOnUse" color-interpolation-filters="sRGB">
<feFlood flood-opacity="0" result="BackgroundImageFix"/>
<feBlend mode="normal" in="SourceGraphic" in2="BackgroundImageFix" result="shape"/>
<feColorMatrix in="SourceAlpha" type="matrix" values="0 0 0 0 0 0 0 0 0 0 0 0 0 0 0 0 0 0 127 0" result="hardAlpha"/>
<feOffset dx="-1" dy="2"/>
<feGaussianBlur stdDeviation="1"/>
<feComposite in2="hardAlpha" operator="arithmetic" k2="-1" k3="1"/>
<feColorMatrix type="matrix" values="0 0 0 0 1 0 0 0 0 1 0 0 0 0 1 0 0 0 0.25 0"/>
<feBlend mode="overlay" in2="shape" result="effect1_innerShadow_8_2"/>
<feColorMatrix in="SourceAlpha" type="matrix" values="0 0 0 0 0 0 0 0 0 0 0 0 0 0 0 0 0 0 127 0" result="hardAlpha"/>
<feOffset dy="1"/>
<feGaussianBlur stdDeviation="1"/>
<feComposite in2="hardAlpha" operator="arithmetic" k2="-1" k3="1"/>
<feColorMatrix type="matrix" values="0 0 0 0 1 0 0 0 0 1 0 0 0 0 1 0 0 0 0.25 0"/>
<feBlend mode="overlay" in2="effect1_innerShadow_8_2" result="effect2_innerShadow_8_2"/>
<feColorMatrix in="SourceAlpha" type="matrix" values="0 0 0 0 0 0 0 0 0 0 0 0 0 0 0 0 0 0 127 0" result="hardAlpha"/>
<feOffset dx="-1" dy="-2"/>
<feGaussianBlur stdDeviation="2"/>
<feComposite in2="hardAlpha" operator="arithmetic" k2="-1" k3="1"/>
<feColorMatrix type="matrix" values="0 0 0 0 0 0 0 0 0 0 0 0 0 0 0 0 0 0 0.15 0"/>
<feBlend mode="luminosity" in2="effect2_innerShadow_8_2" result="effect3_innerShadow_8_2"/>
</filter>
<radialGradient id="paint0_radial_8_2" cx="0" cy="0" r="1" gradientUnits="userSpaceOnUse" gradientTransform="translate(64 64) rotate(45) scale(43 83.2139)">
<stop stop-color="#F66151"/>
<stop offset="0.3125" stop-color="#E25048"/>
<stop offset="1" stop-color="#A51D2D"/>
</radialGradient>
<radialGradient id="paint1_radial_8_2" cx="0" cy="0" r="1" gradientUnits="userSpaceOnUse" gradientTransform="translate(66.5 37) rotate(87.53) scale(127.619 183.596)">
<stop offset="0.115385" stop-color="white"/>
<stop offset="1" stop-color="#666666" stop-opacity="0"/>
</radialGradient>
<linearGradient id="paint2_diamond_8_2" x1="0" y1="0" x2="500" y2="500" gradientUnits="userSpaceOnUse">
<stop stop-color="white"/>
<stop offset="1" stop-color="white" stop-opacity="0"/>
</linearGradient>
<linearGradient id="paint3_diamond_8_2" x1="0" y1="0" x2="500" y2="500" gradientUnits="userSpaceOnUse">
<stop stop-color="white"/>
<stop offset="1" stop-color="white" stop-opacity="0"/>
</linearGradient>
<radialGradient id="paint4_radial_8_2" cx="0" cy="0" r="1" gradientUnits="userSpaceOnUse" gradientTransform="translate(64 68) rotate(135) scale(43 83.2139)">
<stop offset="1" stop-opacity="0.75"/>
</radialGradient>
<radialGradient id="paint5_radial_8_2" cx="0" cy="0" r="1" gradientUnits="userSpaceOnUse" gradientTransform="translate(101 36) scale(20 16)">
<stop stop-color="#A51D2D"/>
<stop offset="0.9999" stop-color="#C5383B"/>
</radialGradient>
<linearGradient id="paint6_linear_8_2" x1="109" y1="36" x2="97" y2="72.5" gradientUnits="userSpaceOnUse">
<stop stop-color="white" stop-opacity="0"/>
<stop offset="1" stop-color="white"/>
</linearGradient>
<radialGradient id="paint7_radial_8_2" cx="0" cy="0" r="1" gradientUnits="userSpaceOnUse" gradientTransform="translate(97 36) scale(24 15)">
<stop/>
<stop offset="1" stop-opacity="0"/>
</radialGradient>
<radialGradient id="paint8_radial_8_2" cx="0" cy="0" r="1" gradientUnits="userSpaceOnUse" gradientTransform="translate(109 21) rotate(90) scale(30 14.0037)">
<stop/>
<stop offset="1" stop-opacity="0"/>
</radialGradient>
<radialGradient id="paint9_radial_8_2" cx="0" cy="0" r="1" gradientUnits="userSpaceOnUse" gradientTransform="translate(27 92) rotate(180) scale(20 16)">
<stop stop-color="#A51D2D"/>
<stop offset="1" stop-color="#C5383B"/>
</radialGradient>
<linearGradient id="paint10_linear_8_2" x1="19" y1="92" x2="31" y2="128.5" gradientUnits="userSpaceOnUse">
<stop stop-color="white" stop-opacity="0"/>
<stop offset="1" stop-color="white"/>
</linearGradient>
<radialGradient id="paint11_radial_8_2" cx="0" cy="0" r="1" gradientUnits="userSpaceOnUse" gradientTransform="translate(31 92) rotate(180) scale(24 15)">
<stop/>
<stop offset="1" stop-opacity="0"/>
</radialGradient>
<radialGradient id="paint12_radial_8_2" cx="0" cy="0" r="1" gradientUnits="userSpaceOnUse" gradientTransform="translate(19 77) rotate(90) scale(30 14.0037)">
<stop/>
<stop offset="1" stop-opacity="0"/>
</radialGradient>
<radialGradient id="paint13_radial_8_2" cx="0" cy="0" r="1" gradientUnits="userSpaceOnUse" gradientTransform="translate(64 64) rotate(135) scale(43 83.2139)">
<stop stop-color="#62A0EA"/>
<stop offset="0.740385" stop-color="#2074D9"/>
<stop offset="1" stop-color="#1C71D8"/>
</radialGradient>
<radialGradient id="paint14_radial_8_2" cx="0" cy="0" r="1" gradientUnits="userSpaceOnUse" gradientTransform="translate(61.5 37) rotate(92.47) scale(127.619 183.596)">
<stop offset="0.115385" stop-color="white"/>
<stop offset="1" stop-color="#666666" stop-opacity="0"/>
</radialGradient>
<linearGradient id="paint15_diamond_8_2" x1="0" y1="0" x2="500" y2="500" gradientUnits="userSpaceOnUse">
<stop stop-color="white"/>
<stop offset="1" stop-color="white" stop-opacity="0"/>
</linearGradient>
<linearGradient id="paint16_diamond_8_2" x1="0" y1="0" x2="500" y2="500" gradientUnits="userSpaceOnUse">
<stop stop-color="white"/>
<stop offset="1" stop-color="white" stop-opacity="0"/>
</linearGradient>
<radialGradient id="paint17_radial_8_2" cx="0" cy="0" r="1" gradientUnits="userSpaceOnUse" gradientTransform="translate(101 92) scale(20 16)">
<stop stop-color="#4231FF"/>
<stop offset="1" stop-color="#5166F5"/>
</radialGradient>
<linearGradient id="paint18_linear_8_2" x1="109" y1="92" x2="97" y2="128.5" gradientUnits="userSpaceOnUse">
<stop stop-color="white" stop-opacity="0"/>
<stop offset="1" stop-color="white"/>
</linearGradient>
<radialGradient id="paint19_radial_8_2" cx="0" cy="0" r="1" gradientUnits="userSpaceOnUse" gradientTransform="translate(97 92) scale(24 15)">
<stop/>
<stop offset="1" stop-opacity="0"/>
</radialGradient>
<radialGradient id="paint20_radial_8_2" cx="0" cy="0" r="1" gradientUnits="userSpaceOnUse" gradientTransform="translate(109 77) rotate(90) scale(30 14.0037)">
<stop/>
<stop offset="1" stop-opacity="0"/>
</radialGradient>
<radialGradient id="paint21_radial_8_2" cx="0" cy="0" r="1" gradientUnits="userSpaceOnUse" gradientTransform="translate(27 36) rotate(180) scale(20 16)">
<stop stop-color="#4231FF"/>
<stop offset="1" stop-color="#5166F5"/>
</radialGradient>
<linearGradient id="paint22_linear_8_2" x1="19" y1="36" x2="31" y2="72.5" gradientUnits="userSpaceOnUse">
<stop stop-color="white" stop-opacity="0"/>
<stop offset="1" stop-color="white"/>
</linearGradient>
<radialGradient id="paint23_radial_8_2" cx="0" cy="0" r="1" gradientUnits="userSpaceOnUse" gradientTransform="translate(31 36) rotate(180) scale(24 15)">
<stop/>
<stop offset="1" stop-opacity="0"/>
</radialGradient>
<radialGradient id="paint24_radial_8_2" cx="0" cy="0" r="1" gradientUnits="userSpaceOnUse" gradientTransform="translate(19 21) rotate(90) scale(30 14.0037)">
<stop/>
<stop offset="1" stop-opacity="0"/>
</radialGradient>
</defs>
</svg>
